<svg width="341" height="381" viewBox="0 0 341 381" fill="none" xmlns="http://www.w3.org/2000/svg">
<circle cx="170.313" cy="210.229" r="170.313" fill="#F5A524"></circle>
<path d="M226.108 0C256.923 0 281.903 24.9802 281.903 55.7949C281.903 86.6096 256.923 111.59 226.108 111.59C195.293 111.59 170.313 86.6096 170.313 55.7949C170.313 24.9803 195.293 3.29904e-05 226.108 0ZM226.108 25.4004C207.044 25.4004 191.59 40.8545 191.59 59.918C191.59 78.9815 207.044 94.4355 226.108 94.4355C245.172 94.4355 260.626 78.9815 260.626 59.918C260.626 40.8544 245.172 25.4004 226.108 25.4004Z" fill="#F5A524"></path>
<circle cx="170.313" cy="210.229" r="132.062" fill="#FDF8F3"></circle>
<path d="M200.308 234.463L141.623 185.129L226.623 133.73C234.141 129.184 243.051 137 239.522 145.047L200.308 234.463Z" fill="#F14B2F"></path>
<path d="M141.672 185.094L200.357 234.427L115.357 285.826C107.839 290.373 98.9292 282.556 102.458 274.51L141.672 185.094Z" fill="#373738"></path>
<circle cx="170.313" cy="210.228" r="16.7336" fill="#FDF8F3"></circle>
<rect x="161.945" y="296.393" width="16.7357" height="31.0371" rx="8" fill="#2E9E5B"></rect>
<rect x="161.945" y="96.0703" width="16.7357" height="31.0371" rx="8" fill="#2E9E5B"></rect>
<rect x="54.1227" y="218.598" width="16.7357" height="31.0371" rx="8" transform="rotate(-90 54.1227 218.598)" fill="#2E9E5B"></rect>
<rect x="250.692" y="218.598" width="16.7357" height="31.0371" rx="8" transform="rotate(-90 250.692 218.598)" fill="#2E9E5B"></rect>
</svg>